<?xml version="1.0" encoding="utf-8"?>
<!-- Generator: Adobe Illustrator 24.0.3, SVG Export Plug-In . SVG Version: 6.00 Build 0)  -->
<svg version="1.0" id="Layer_1" xmlns="http://www.w3.org/2000/svg" xmlns:xlink="http://www.w3.org/1999/xlink" x="0px" y="0px"
	 viewBox="0 0 120 120" enable-background="new 0 0 120 120" xml:space="preserve">
<rect x="1" fill="#FFFFFF" width="119" height="119"/>
<g>
	<polygon fill="#231F20" points="191.125,29.257 198.057,42.742 212.921,17.003 212.919,17 177.516,17 159.815,47.659 
		177.514,78.316 192.328,52.663 180.39,29.257 	"/>
	<polygon fill="#231F20" points="198.792,44.172 210.046,66.062 199.162,66.062 193.06,54.098 179.074,78.319 212.919,78.319 
		230.621,47.659 213.701,18.355 	"/>
	<g>
		<path fill="#231F20" d="M159.815,90.59h2.514v13.36h-2.514V90.59z"/>
		<path fill="#231F20" d="M171.956,94.814v9.136h-2.495V90.59h2.181l6.189,9.155V90.59h2.534v13.36h-2.22L171.956,94.814z"/>
		<path fill="#231F20" d="M187.477,90.59h4.99c0.838,0,1.618,0.148,2.338,0.442c0.72,0.294,1.342,0.723,1.866,1.287
			c0.524,0.563,0.933,1.264,1.228,2.103c0.294,0.838,0.442,1.794,0.442,2.869c0,1.074-0.147,2.026-0.442,2.857
			c-0.295,0.832-0.704,1.53-1.228,2.094c-0.524,0.563-1.146,0.988-1.866,1.276c-0.721,0.289-1.5,0.433-2.338,0.433h-4.99V90.59z
			 M192.153,101.749c1.113,0,1.994-0.379,2.642-1.14c0.649-0.758,0.973-1.865,0.973-3.319c0-1.467-0.324-2.584-0.973-3.35
			c-0.648-0.766-1.529-1.15-2.642-1.15h-2.162v8.959H192.153z"/>
		<path fill="#231F20" d="M204.785,103.95V90.59h9.056v2.22h-6.641v3.183h5.423v2.181h-5.423v3.575h6.641v2.201H204.785z"/>
		<polygon fill="#231F20" points="226.665,97.304 230.742,90.604 227.787,90.605 224.899,95.634 222.011,90.605 219.075,90.604 
			223.151,97.304 219.059,103.964 222.031,103.964 224.899,98.954 227.748,103.964 230.756,103.964 		"/>
	</g>
</g>
<g>
	<path fill="#1D1D1B" d="M50.335,57.981c4.219,0,8.533-2.708,10.296-6.517c0.661-1.354,0.913-2.708,1.008-4.188
		c0-0.126,0-0.283,0-0.409c0-6.202-5.227-10.799-11.303-10.799c-5.982,0-11.083,4.597-11.397,10.61c0,0.126,0,0.252,0,0.378
		C38.937,53.227,44.289,57.981,50.335,57.981z M50.335,37.106c5.825,0,8.848,4.912,8.848,10.264c0,5.29-3.369,9.509-8.879,9.509
		c-1.354,0-2.708-0.346-3.904-0.945c-3.558-1.826-5.132-5.447-5.132-9.319C41.267,41.168,44.762,37.106,50.335,37.106z"/>
	<path fill="#1D1D1B" d="M61.951,37.579c0.567-0.063,1.165-0.063,1.732-0.094c1.196-0.031,2.362-0.063,3.527-0.063v18.891
		c0,0.63-0.252,1.133-0.819,1.417h3.652c-0.567-0.283-0.819-0.787-0.819-1.417V37.421c1.637,0,3.526,0,5.164,0.158
		c0.787,0.063,1.354,0.535,1.732,1.228V36.32H60.251v2.487C60.628,38.146,61.164,37.673,61.951,37.579z"/>
	<path fill="#1D1D1B" d="M77.345,57.729h11.776l0.535-3.054c-0.819,1.574-1.763,1.858-3.463,1.952
		c-0.819,0.031-1.637,0.031-2.456,0.031c-1.196,0-2.362-0.094-3.558-0.252V46.332h5.479c0.472,0,0.944,0.472,1.102,0.882v-2.802
		c-0.158,0.378-0.661,0.882-1.102,0.882h-5.479v-7.871h5.415c1.165,0,1.984,0.189,2.771,1.071V36.32h-11.02
		c0.567,0.315,0.85,0.756,0.85,1.417v18.576C78.196,56.942,77.912,57.446,77.345,57.729z"/>
	<path fill="#1D1D1B" d="M52.922,82.41h3.684c-0.598-0.283-0.85-0.787-0.85-1.417V62.417c0-0.661,0.252-1.102,0.85-1.417h-3.684
		c0.567,0.315,0.85,0.756,0.85,1.417v7.556H41.745v-7.556c0-0.63,0.252-1.102,0.819-1.417h-3.652
		c0.567,0.315,0.819,0.787,0.819,1.417v18.576c0,0.63-0.252,1.133-0.819,1.417h3.652c-0.567-0.283-0.819-0.787-0.819-1.417V70.981
		h12.027v10.012C53.773,81.623,53.489,82.127,52.922,82.41z"/>
	<path fill="#1D1D1B" d="M70.331,60.748c-5.982,0-11.083,4.597-11.397,10.61c0,0.126,0,0.252,0,0.378
		c0,6.171,5.352,10.925,11.397,10.925c4.219,0,8.533-2.708,10.296-6.517c0.661-1.354,0.913-2.708,1.008-4.188
		c0-0.126,0-0.283,0-0.409C81.635,65.345,76.408,60.748,70.331,60.748z M70.3,81.56c-1.354,0-2.708-0.346-3.904-0.945
		c-3.558-1.826-5.132-5.447-5.132-9.319c0-5.447,3.495-9.509,9.068-9.509c5.825,0,8.848,4.912,8.848,10.264
		C79.179,77.341,75.81,81.56,70.3,81.56z"/>
	<path fill="#1D1D1B" d="M102.633,61c0.41,0.158,0.787,0.41,0.787,0.882c0,0.22-0.063,0.441-0.126,0.63l-5.415,16.435l-3.337-9.823
		l2.298-6.612c0.315-0.882,0.346-0.945,1.133-1.512h-2.739c0.378,0.126,0.693,0.346,0.693,0.787c0,0.252-0.063,0.504-0.158,0.724
		l-1.794,5.195l-1.858-4.754c-0.094-0.283-0.189-0.567-0.189-0.882c0-0.472,0.221-0.882,0.693-1.071h-4.565
		c0.881,0.346,1.196,0.661,1.543,1.512c1.133,2.771,2.172,5.573,3.243,8.343l-2.456,7.966l-6.013-15.868
		c-0.094-0.283-0.189-0.598-0.189-0.913c0-0.472,0.22-0.85,0.692-1.039h-4.597c0.882,0.346,1.228,0.661,1.574,1.512
		c1.008,2.456,1.921,4.975,2.865,7.462c1.7,4.471,3.369,8.91,5.069,13.381l3.621-11.083c1.417,3.652,2.739,7.368,3.967,11.083
		l7.115-20.843c0.315-0.913,0.535-0.976,1.291-1.512H102.633z"/>
	<path fill="#1D1D1B" d="M41.13,85.682h-2.192c0.124,0.066,0.214,0.181,0.214,0.371v4.863c0,0.181-0.091,0.297-0.214,0.371h2.119
		c2.225,0,3.329-1.451,3.329-2.885C44.385,87.603,43.842,85.682,41.13,85.682z M40.858,90.858c-0.156,0-0.461,0-0.659,0v-4.747
		c0.124-0.016,0.561-0.016,0.758-0.016c1.706,0,2.283,1.319,2.283,2.308C43.24,89.606,42.72,90.858,40.858,90.858z"/>
	<path fill="#1D1D1B" d="M50.846,86.053l0.016,3.387c0,0.816-0.354,1.459-1.335,1.459c-1.072,0-1.269-0.816-1.269-1.393v-3.453
		c0-0.19,0.124-0.305,0.256-0.371h-1.582c0.132,0.066,0.264,0.181,0.264,0.371v3.429c0,1.459,1.228,1.887,2.192,1.887
		c1.121,0,1.946-0.544,1.954-1.945l0.024-3.371c0-0.19,0.091-0.305,0.214-0.371h-0.956C50.747,85.748,50.846,85.864,50.846,86.053z"
		/>
	<path fill="#1D1D1B" d="M56.877,88.287c0,0,1.137-0.28,1.137-1.302c0-1.104-1.336-1.302-1.896-1.302h-1.821
		c0.132,0.066,0.231,0.181,0.231,0.371v4.863c0,0.181-0.099,0.297-0.231,0.371h2.036c1.739,0,2.192-0.907,2.192-1.566
		C58.525,88.394,56.877,88.287,56.877,88.287z M55.575,86.095c0,0,0.189-0.017,0.412-0.017c0.61,0,1.064,0.404,1.064,0.989
		c0,0.849-0.734,1.063-1.204,1.063c-0.132,0-0.272-0.016-0.272-0.016C55.575,87.702,55.575,86.095,55.575,86.095z M55.846,90.883
		c-0.173,0-0.272-0.025-0.272-0.025c0-1.022,0-2.299,0-2.299s0.33-0.008,0.503-0.008c0.684,0,1.343,0.231,1.343,1.104
		C57.421,90.644,56.523,90.883,55.846,90.883z"/>
	<path fill="#1D1D1B" d="M65.464,90.883c-0.148-0.313-2.341-5.374-2.341-5.374s-2.168,5.061-2.324,5.374
		c-0.082,0.157-0.156,0.247-0.387,0.404h1.137c-0.223-0.099-0.264-0.214-0.189-0.412c0.016-0.091,0.214-0.577,0.461-1.137h2.019
		c0.231,0.56,0.445,1.063,0.47,1.146c0.058,0.173,0.016,0.288-0.198,0.404h1.764C65.604,91.147,65.546,91.056,65.464,90.883z
		 M61.986,89.309c0.264-0.618,0.824-2.019,0.824-2.019s0.453,1.104,0.841,2.019H61.986z"/>
	<path fill="#1D1D1B" d="M69.435,85.682h-1.492c0.132,0.066,0.214,0.181,0.214,0.371v4.863c0,0.181-0.082,0.297-0.214,0.371h1.492
		c-0.14-0.074-0.214-0.19-0.214-0.371v-4.863C69.22,85.864,69.295,85.748,69.435,85.682z"/>
	<path fill="#1D1D1B" d="M39.35,28.828c0,0,0.709-0.058,1.319-0.058v4.822c0,0.181-0.082,0.297-0.214,0.371h1.475
		c-0.123-0.074-0.214-0.19-0.214-0.371V28.77c0.602,0,1.352,0.058,1.352,0.058c0.198,0.008,0.313,0.19,0.387,0.33v-0.799h-4.517
		v0.799C39.012,29.017,39.152,28.836,39.35,28.828z"/>
	<path fill="#1D1D1B" d="M45.9,33.963h1.492c-0.14-0.074-0.214-0.19-0.214-0.371v-2.522h2.564v2.522
		c0,0.181-0.082,0.297-0.214,0.371h1.492c-0.14-0.074-0.231-0.19-0.231-0.371v-4.863c0-0.19,0.091-0.305,0.231-0.371h-1.492
		c0.132,0.066,0.214,0.181,0.214,0.371v1.937h-2.564v-1.937c0-0.19,0.074-0.305,0.214-0.371H45.9
		c0.132,0.066,0.214,0.181,0.214,0.371v4.863C46.115,33.773,46.032,33.888,45.9,33.963z"/>
	<path fill="#1D1D1B" d="M53.836,33.963h3.544l0.173-0.948c-0.305,0.519-0.634,0.494-1.352,0.519
		c-0.404,0.008-0.906-0.016-1.071-0.041v-2.423h1.244c0.116,0,0.256,0.124,0.297,0.239v-0.873c-0.041,0.099-0.181,0.231-0.297,0.231
		H55.13V28.77c0,0,1.154,0,1.401,0.016c0.313,0.017,0.486,0.082,0.643,0.297l-0.025-0.725h-3.313
		c0.132,0.066,0.247,0.181,0.247,0.371v4.863C54.083,33.789,53.976,33.88,53.836,33.963z"/>
	<path fill="#1D1D1B" d="M91.197,57.729h12.311v-3.054c-0.819,1.574-1.763,1.858-3.464,1.952c-0.819,0.031-1.637,0.031-2.456,0.031
		c-1.196,0-2.361-0.094-3.558-0.252V37.736c0-0.661,0.283-1.102,0.85-1.417h-3.684c0.567,0.315,0.85,0.756,0.85,1.417v18.576
		C92.048,56.942,91.764,57.446,91.197,57.729z"/>
	<path fill="#1D1D1B" d="M13,36.157c0.876,0.486,1.265,1.217,1.265,2.19v48.801c0,0.973-0.389,1.752-1.265,2.19h3.889v-2.19v-8.807
		V38.347c0-0.974,0.389-1.704,1.265-2.19H13z"/>
	<path fill="#1D1D1B" d="M34.031,38.347v20.158h-6.77c-4.818,0-9.539,2.872-9.539,8.128c0,4.818,3.893,6.96,7.738,8.809
		c3.942,1.898,7.738,3.017,7.738,8.128c0,4.185-2.531,7.252-6.911,7.252c-4.126,0-6.679-2.645-8.214-6.033v4.802
		c2.579,1.67,4.967,2.788,8.214,2.788c5.256,0,10.172-4.234,10.172-9.636c0-6.327-4.428-7.738-9.198-10.22
		c-2.969-1.558-6.571-3.115-6.571-6.959c0-3.505,2.287-5.548,5.743-5.548h7.597v14.672c1.039,0.737,2.073,1.708,2.624,3.202V38.347
		c0-0.974,0.389-1.704,1.265-2.19h-5.155C33.642,36.643,34.031,37.373,34.031,38.347z"/>
</g>
</svg>
