<?xml version="1.0" encoding="utf-8"?>
<!-- Generator: Adobe Illustrator 24.0.3, SVG Export Plug-In . SVG Version: 6.00 Build 0)  -->
<svg version="1.0" id="Layer_1" xmlns="http://www.w3.org/2000/svg" xmlns:xlink="http://www.w3.org/1999/xlink" x="0px" y="0px"
	 viewBox="0 0 120 120" enable-background="new 0 0 120 120" xml:space="preserve">
<rect x="1" fill="#FFFFFF" width="119" height="119"/>
<g>
	<polygon fill="#231F20" points="56.125,29.257 63.057,42.742 77.921,17.003 77.919,17 42.516,17 24.815,47.659 42.514,78.316 
		57.328,52.663 45.39,29.257 	"/>
	<polygon fill="#231F20" points="63.792,44.172 75.046,66.062 64.162,66.062 58.06,54.098 44.074,78.319 77.919,78.319 
		95.621,47.659 78.701,18.355 	"/>
	<g>
		<path fill="#231F20" d="M24.815,90.59h2.514v13.36h-2.514V90.59z"/>
		<path fill="#231F20" d="M36.956,94.814v9.136h-2.495V90.59h2.181l6.189,9.155V90.59h2.534v13.36h-2.22L36.956,94.814z"/>
		<path fill="#231F20" d="M52.477,90.59h4.99c0.838,0,1.618,0.148,2.338,0.442c0.72,0.294,1.342,0.723,1.866,1.287
			c0.524,0.563,0.933,1.264,1.228,2.103c0.294,0.838,0.442,1.794,0.442,2.869c0,1.074-0.147,2.026-0.442,2.857
			c-0.295,0.832-0.704,1.53-1.228,2.094c-0.524,0.563-1.146,0.988-1.866,1.276c-0.721,0.289-1.5,0.433-2.338,0.433h-4.99V90.59z
			 M57.153,101.749c1.113,0,1.994-0.379,2.642-1.14c0.649-0.758,0.973-1.865,0.973-3.319c0-1.467-0.324-2.584-0.973-3.35
			c-0.648-0.766-1.529-1.15-2.642-1.15h-2.162v8.959H57.153z"/>
		<path fill="#231F20" d="M69.785,103.95V90.59h9.056v2.22h-6.641v3.183h5.423v2.181h-5.423v3.575h6.641v2.201H69.785z"/>
		<polygon fill="#231F20" points="91.665,97.304 95.742,90.604 92.787,90.605 89.899,95.634 87.011,90.605 84.075,90.604 
			88.151,97.304 84.059,103.964 87.031,103.964 89.899,98.954 92.748,103.964 95.756,103.964 		"/>
	</g>
</g>
</svg>
