<?xml version="1.0" encoding="utf-8"?>
<!-- Generator: Adobe Illustrator 24.0.3, SVG Export Plug-In . SVG Version: 6.00 Build 0)  -->
<svg version="1.0" id="Layer_1" xmlns="http://www.w3.org/2000/svg" xmlns:xlink="http://www.w3.org/1999/xlink" x="0px" y="0px"
	 viewBox="0 0 120 120" enable-background="new 0 0 120 120" xml:space="preserve">
<rect x="1" fill="#FFFFFF" width="119" height="119"/>
<g>
	<polygon fill="#231F20" points="191.125,29.257 198.057,42.742 212.921,17.003 212.919,17 177.516,17 159.815,47.659 
		177.514,78.316 192.328,52.663 180.39,29.257 	"/>
	<polygon fill="#231F20" points="198.792,44.172 210.046,66.062 199.162,66.062 193.06,54.098 179.074,78.319 212.919,78.319 
		230.621,47.659 213.701,18.355 	"/>
	<g>
		<path fill="#231F20" d="M159.815,90.59h2.514v13.36h-2.514V90.59z"/>
		<path fill="#231F20" d="M171.956,94.814v9.136h-2.495V90.59h2.181l6.189,9.155V90.59h2.534v13.36h-2.22L171.956,94.814z"/>
		<path fill="#231F20" d="M187.477,90.59h4.99c0.838,0,1.618,0.148,2.338,0.442c0.72,0.294,1.342,0.723,1.866,1.287
			c0.524,0.563,0.933,1.264,1.228,2.103c0.294,0.838,0.442,1.794,0.442,2.869c0,1.074-0.147,2.026-0.442,2.857
			c-0.295,0.832-0.704,1.53-1.228,2.094c-0.524,0.563-1.146,0.988-1.866,1.276c-0.721,0.289-1.5,0.433-2.338,0.433h-4.99V90.59z
			 M192.153,101.749c1.113,0,1.994-0.379,2.642-1.14c0.649-0.758,0.973-1.865,0.973-3.319c0-1.467-0.324-2.584-0.973-3.35
			c-0.648-0.766-1.529-1.15-2.642-1.15h-2.162v8.959H192.153z"/>
		<path fill="#231F20" d="M204.785,103.95V90.59h9.056v2.22h-6.641v3.183h5.423v2.181h-5.423v3.575h6.641v2.201H204.785z"/>
		<polygon fill="#231F20" points="226.665,97.304 230.742,90.604 227.787,90.605 224.899,95.634 222.011,90.605 219.075,90.604 
			223.151,97.304 219.059,103.964 222.031,103.964 224.899,98.954 227.748,103.964 230.756,103.964 		"/>
	</g>
</g>
<g>
	<path fill="#1D1D1B" d="M57.042,73.044c0.458-0.258,0.774-0.458,0.774-1.089V64.42c0-1.69-0.716-3.237-3.065-3.237
		c-1.289,0-2.578,0.745-3.123,1.49v9.282c0,0.63,0.286,0.831,0.802,1.089H48.39c0.487-0.258,0.745-0.458,0.745-1.089V55.139
		c0-0.831-0.544-0.974-1.003-1.146l3.495-0.687v8.222c0.63-0.544,2.435-2.034,4.326-2.034c2.235,0,4.297,1.346,4.297,3.982v8.48
		c0,0.63,0.258,0.831,0.745,1.089H57.042z"/>
	<path fill="#1D1D1B" d="M68.666,73.301c-4.526-0.029-6.274-3.839-6.274-6.876c0-3.409,2.349-6.933,6.331-6.933
		c4.326,0.029,6.274,3.524,6.245,6.933C74.968,69.807,72.476,73.301,68.666,73.301z M68.465,60.524
		c-2.521,0.086-3.553,3.008-3.467,6.045c0.115,3.094,1.49,5.701,3.867,5.615c2.492-0.115,3.638-2.779,3.495-5.959
		C72.247,63.332,71.015,60.41,68.465,60.524z"/>
	<path fill="#1D1D1B" d="M93.858,61.326L88.529,73.33l-3.61-9.798l-3.925,9.798l-4.899-12.09c-0.315-0.802-0.745-1.146-1.375-1.404
		h5.013c-0.802,0.258-1.117,0.688-0.888,1.346l2.779,7.735l2.693-6.99l-0.43-0.945c-0.287-0.63-0.659-0.945-1.518-1.146h5.3
		c-0.859,0.258-1.146,0.745-0.945,1.346l2.693,7.62l3.094-7.334c0.287-0.659-0.115-1.375-0.859-1.633h3.638
		C94.603,60.123,94.059,60.839,93.858,61.326z"/>
	<path fill="#1D1D1B" d="M32.024,43.774c0,0.225,0,0.478,0,0.787c0,2.839,1.518,5.312,4.498,5.312c1.968,0,3.963-1.602,4.498-2.923
		c-0.084,2.305-2.249,4.553-5.257,4.553c-3.964,0-6.381-3.373-6.381-6.718c0-3.064,2.164-6.831,6.465-6.831
		c2.39,0,5.285,1.658,5.285,5.819H32.024z M35.509,38.967c-2.052,0-3.149,1.828-3.373,3.767h6.409
		C38.545,40.007,37.055,38.967,35.509,38.967z"/>
	<path fill="#1D1D1B" d="M43.339,51.252c0.236-0.503,0.334-0.45,0.334-1.068V39.755c0-0.871-0.534-0.984-0.984-1.124l3.43-0.675
		v12.228c0,0.618,0.281,0.815,0.731,1.068H43.339z"/>
	<path fill="#1D1D1B" d="M52.837,51.504c-1.574,0-2.811-0.73-3.739-1.321v-3.627c0.45,1.968,1.715,3.823,3.57,3.823
		c2.024,0,2.558-1.574,2.558-2.249c0-1.378-1.012-1.799-2.98-2.952c-2.192-1.293-2.895-2.192-2.895-3.795
		c0-1.378,1.04-3.429,4.16-3.429c0.731,0,1.799,0.14,3.092,0.815v3.373c-0.45-1.462-1.377-3.204-3.092-3.204
		c-1.434,0-2.108,0.955-2.108,1.687c0,1.18,0.9,1.714,2.39,2.558c1.799,1.04,3.766,2.108,3.766,4.413
		C57.559,50.184,54.888,51.504,52.837,51.504z"/>
	<path fill="#1D1D1B" d="M69.262,51.504c-0.675-0.393-1.012-0.703-1.012-1.968c-0.843,0.928-2.108,1.968-4.104,1.968
		c-1.658,0-4.273-1.096-4.273-5.285c0-1.068,0-6.465,0-6.465c0-0.871-0.534-0.984-0.956-1.124l3.401-0.675c0,0,0,6.634,0,8.264
		c0,2.389,1.293,3.627,2.895,3.627c1.377,0,2.164-0.646,2.98-1.434v-8.658c0-0.871-0.534-0.984-0.984-1.124l3.373-0.675
		c0,0,0,10.569,0,11.047c0,0.844,0.253,1.462,1.125,1.603L69.262,51.504z"/>
	<path fill="#1D1D1B" d="M84.564,43.774c0,0.225,0,0.478,0,0.787c0,2.839,1.518,5.312,4.498,5.312c1.968,0,3.963-1.602,4.498-2.923
		c-0.084,2.305-2.249,4.553-5.257,4.553c-3.964,0-6.381-3.373-6.381-6.718c0-3.064,2.164-6.831,6.465-6.831
		c2.389,0,5.285,1.658,5.285,5.819H84.564z M88.049,38.967c-2.052,0-3.149,1.828-3.373,3.767h6.409
		C91.085,40.007,89.595,38.967,88.049,38.967z"/>
	<path fill="#1D1D1B" d="M42.065,65.746H19.491c1.039-0.52,1.559-1.444,1.559-2.598v-33.55c0-1.213-0.52-2.021-1.559-2.598h6.755
		c-1.039,0.577-1.559,1.385-1.559,2.598v33.723c2.194,0.288,4.33,0.461,6.524,0.461c1.501,0,3.002,0,4.503-0.057
		c3.117-0.173,4.85-0.693,6.351-3.579V65.746z"/>
	<g>
		<path fill="#1D1D1B" d="M59.393,28.076c-0.051-0.076-0.114-0.155-0.19-0.237c-0.076-0.082-0.177-0.127-0.304-0.133
			c-0.165-0.006-0.336-0.016-0.513-0.028c-0.152-0.013-0.32-0.022-0.503-0.029c-0.184-0.006-0.361-0.009-0.532-0.009v5.641
			c0,0.108,0.022,0.194,0.067,0.261c0.044,0.067,0.104,0.122,0.18,0.166h-1.402c0.169-0.089,0.253-0.231,0.253-0.427v-5.641
			c-0.184,0-0.366,0.003-0.546,0.009c-0.18,0.006-0.347,0.016-0.499,0.029c-0.177,0.013-0.348,0.022-0.513,0.028
			c-0.114,0.006-0.214,0.051-0.299,0.133c-0.085,0.082-0.15,0.161-0.195,0.237v-0.826h4.986L59.393,28.076z"/>
		<path fill="#1D1D1B" d="M64.141,33.707c0.079-0.044,0.141-0.1,0.187-0.166c0.046-0.067,0.069-0.153,0.069-0.261v-2.963h-3.324
			v2.963c0,0.108,0.025,0.194,0.074,0.261s0.11,0.122,0.182,0.166h-1.406c0.076-0.044,0.136-0.1,0.181-0.166
			c0.044-0.067,0.066-0.153,0.066-0.261v-5.603c0-0.203-0.082-0.345-0.247-0.428h1.406c-0.072,0.038-0.133,0.092-0.182,0.161
			s-0.074,0.158-0.074,0.265v2.243h3.324v-2.243c0-0.202-0.085-0.344-0.256-0.426h1.406c-0.165,0.076-0.247,0.219-0.247,0.428v5.603
			c0,0.196,0.082,0.339,0.247,0.427H64.141z"/>
		<path fill="#1D1D1B" d="M70.39,33.707h-3.827c0.089-0.044,0.158-0.098,0.209-0.161c0.051-0.063,0.076-0.152,0.076-0.266v-5.603
			c0-0.108-0.025-0.196-0.076-0.266c-0.051-0.07-0.114-0.124-0.19-0.162h3.58l0.019,0.741c-0.095-0.111-0.201-0.195-0.318-0.254
			c-0.117-0.059-0.277-0.088-0.48-0.088c-0.051,0-0.162,0-0.332,0c-0.171,0-0.355-0.003-0.551-0.009c-0.228,0-0.478-0.003-0.75-0.01
			v2.289h1.548c0.07,0,0.136-0.029,0.2-0.087c0.063-0.058,0.107-0.115,0.133-0.169v0.921c-0.025-0.057-0.07-0.116-0.133-0.176
			c-0.063-0.06-0.13-0.09-0.2-0.09H67.75v2.935c0.107,0.013,0.263,0.025,0.465,0.038c0.203,0.013,0.415,0.019,0.636,0.019
			c0.253,0,0.47-0.003,0.651-0.01c0.18-0.006,0.337-0.028,0.47-0.066c0.133-0.038,0.247-0.097,0.342-0.176
			c0.095-0.079,0.187-0.194,0.275-0.346L70.39,33.707z"/>
	</g>
	
		<rect x="43.452" y="32.39" transform="matrix(0.7071 0.7071 -0.7071 0.7071 36.9475 -21.7837)" fill="#1D1D1B" width="2.635" height="2.635"/>
	<path fill="#1D1D1B" d="M38.742,53.907c-5.499,0-10.883,3.184-11.196,9.022c0.156,0.025,2.331,0.251,3.538,0.219
		c-0.043-0.301-0.068-0.615-0.068-0.944c0-4.12,2.69-6.523,6.753-6.523c0,0,6.065-0.201,8.388,4.911v-4.476
		C44.015,54.61,41.352,53.907,38.742,53.907z"/>
	<path fill="#1D1D1B" d="M38.742,70.388c-2.134-1.12-4.545-2.24-6.098-3.975h-4.638c1.287,3.674,4.971,5.654,8.618,7.409
		c4.636,2.232,9.099,3.548,9.099,9.557c0,4.922-2.976,8.526-8.126,8.526c-5.416,0-8.53-3.871-10.244-8.512v6.681
		c3.262,2.175,6.181,3.663,10.244,3.663c6.181,0,11.961-4.979,11.961-11.33C49.558,74.966,44.351,73.307,38.742,70.388z"/>
	<path fill="#1D1D1B" d="M80.031,37.956c-0.984,0-2.445,1.462-3.036,2.474v-2.474l-3.457,0.675c0.478,0.14,1.012,0.253,1.012,1.124
		v10.429c0,0.618-0.281,0.815-0.731,1.068h3.907c-0.422-0.253-0.731-0.45-0.731-1.068v-8.715c0.534-0.674,1.377-1.518,2.445-1.518
		c0.731,0,1.237,0.338,1.658,0.871c0.637-1.353,1.231-1.764,1.231-1.764C81.242,37.779,80.031,37.956,80.031,37.956z"/>
	<g>
		<g>
			<path fill="#1D1D1B" d="M52.812,80.403c-0.468,0-0.808-0.16-0.988-0.247l-0.026-0.869c0.098,0.365,0.406,0.849,0.941,0.849
				c0.509,0,0.664-0.366,0.664-0.617c0-0.494-0.448-0.556-0.916-0.813c-0.473-0.257-0.679-0.54-0.679-0.931
				c0-0.7,0.653-0.977,1.122-0.977c0.175,0,0.514,0.036,0.777,0.19l0.026,0.761c-0.072-0.273-0.365-0.684-0.859-0.684
				c-0.391,0-0.545,0.273-0.545,0.494c0,0.314,0.221,0.427,0.705,0.653c0.478,0.221,0.978,0.396,0.978,1.111
				C54.01,79.966,53.444,80.403,52.812,80.403z"/>
			<path fill="#1D1D1B" d="M56.263,78.721c-0.17,0.077-0.628,0.18-1.024,0.036v1.363c0,0.113,0.057,0.185,0.134,0.231h-0.931
				c0.082-0.046,0.144-0.118,0.144-0.231v-3.035c0-0.118-0.062-0.19-0.144-0.231h1.168c1.034,0,1.286,0.535,1.286,0.957
				C56.896,78.371,56.412,78.654,56.263,78.721z M55.502,77.096c-0.154,0-0.262,0.005-0.262,0.005v1.445
				c0.026,0.016,0.129,0.026,0.201,0.026c0.273,0,0.792-0.098,0.792-0.761C56.232,77.425,56.011,77.096,55.502,77.096z"/>
			<path fill="#1D1D1B" d="M59.01,80.403c-1.034-0.016-1.898-0.777-1.878-1.831c0.015-0.89,0.725-1.79,1.96-1.775
				c0.88,0.01,1.878,0.648,1.862,1.816C60.934,79.817,59.941,80.414,59.01,80.403z M59.046,77.065c-0.679,0-1.193,0.54-1.199,1.451
				c-0.005,1.096,0.617,1.595,1.209,1.595c0.674,0,1.168-0.535,1.173-1.466C60.234,77.651,59.73,77.065,59.046,77.065z"/>
			<path fill="#1D1D1B" d="M63.974,80.362c-0.196,0.005-0.365-0.118-0.458-0.242c-0.231-0.324-0.458-0.7-0.643-0.988
				c-0.134-0.206-0.252-0.427-0.473-0.427c-0.062,0-0.226,0.01-0.226,0.01v1.404c0,0.113,0.057,0.185,0.144,0.231h-0.931
				c0.082-0.046,0.134-0.118,0.134-0.231v-3.035c0-0.118-0.051-0.19-0.134-0.231h1.111c1.065,0,1.307,0.52,1.307,0.864
				c0,0.556-0.504,0.833-0.869,0.859c0.35,0.036,0.504,0.273,0.581,0.386c0,0,0.623,0.972,0.797,1.183
				c0.103,0.118,0.329,0.206,0.329,0.206L63.974,80.362z M62.472,77.101c-0.154,0-0.298,0.01-0.298,0.01v1.343
				c0,0,0.144,0.01,0.231,0.01c0.35,0,0.72-0.196,0.72-0.715C63.125,77.512,62.981,77.101,62.472,77.101z"/>
			<path fill="#1D1D1B" d="M66.623,77.147c0,0-0.468-0.036-0.844-0.036v3.009c0,0.113,0.056,0.185,0.134,0.231h-0.921
				c0.082-0.046,0.134-0.118,0.134-0.231v-3.009c-0.381,0-0.823,0.036-0.823,0.036c-0.123,0.005-0.211,0.118-0.257,0.206v-0.499
				h2.819v0.499C66.818,77.265,66.747,77.152,66.623,77.147z"/>
			<path fill="#1D1D1B" d="M68.048,80.403c-0.468,0-0.808-0.16-0.988-0.247l-0.026-0.869c0.098,0.365,0.406,0.849,0.941,0.849
				c0.509,0,0.664-0.366,0.664-0.617c0-0.494-0.448-0.556-0.916-0.813c-0.473-0.257-0.679-0.54-0.679-0.931
				c0-0.7,0.653-0.977,1.122-0.977c0.175,0,0.514,0.036,0.777,0.19l0.026,0.761c-0.072-0.273-0.365-0.684-0.859-0.684
				c-0.391,0-0.545,0.273-0.545,0.494c0,0.314,0.221,0.427,0.705,0.653c0.478,0.221,0.978,0.396,0.978,1.111
				C69.246,79.966,68.681,80.403,68.048,80.403z"/>
		</g>
	</g>
	<g>
		<g>
			<path fill="#1D1D1B" d="M76.909,80.362c-0.196,0.005-0.365-0.118-0.458-0.242c-0.231-0.324-0.458-0.7-0.643-0.988
				c-0.134-0.206-0.252-0.427-0.473-0.427c-0.062,0-0.226,0.01-0.226,0.01v1.404c0,0.113,0.057,0.185,0.144,0.231h-0.931
				c0.082-0.046,0.134-0.118,0.134-0.231v-3.035c0-0.118-0.051-0.19-0.134-0.231h1.111c1.065,0,1.307,0.52,1.307,0.864
				c0,0.556-0.504,0.833-0.869,0.859c0.35,0.036,0.504,0.273,0.581,0.386c0,0,0.623,0.972,0.797,1.183
				c0.103,0.118,0.329,0.206,0.329,0.206L76.909,80.362z M75.407,77.101c-0.154,0-0.298,0.01-0.298,0.01v1.343
				c0,0,0.144,0.01,0.231,0.01c0.35,0,0.72-0.196,0.72-0.715C76.061,77.512,75.917,77.101,75.407,77.101z"/>
			<path fill="#1D1D1B" d="M79.831,80.352h-2.212c0.088-0.051,0.154-0.108,0.154-0.231v-3.035c0-0.118-0.072-0.19-0.154-0.231h2.068
				l0.015,0.453c-0.098-0.134-0.206-0.175-0.401-0.185c-0.154-0.01-0.875-0.01-0.875-0.01v1.183h0.777
				c0.072,0,0.159-0.083,0.185-0.144v0.545c-0.026-0.072-0.113-0.149-0.185-0.149h-0.777v1.513c0.103,0.016,0.417,0.031,0.669,0.026
				c0.448-0.016,0.653,0,0.844-0.324L79.831,80.352z"/>
			<path fill="#1D1D1B" d="M81.148,80.403c-0.468,0-0.808-0.16-0.988-0.247l-0.026-0.869c0.098,0.365,0.406,0.849,0.941,0.849
				c0.509,0,0.664-0.366,0.664-0.617c0-0.494-0.448-0.556-0.916-0.813c-0.473-0.257-0.679-0.54-0.679-0.931
				c0-0.7,0.653-0.977,1.122-0.977c0.175,0,0.514,0.036,0.777,0.19l0.026,0.761c-0.072-0.273-0.365-0.684-0.859-0.684
				c-0.391,0-0.545,0.273-0.545,0.494c0,0.314,0.221,0.427,0.705,0.653c0.478,0.221,0.978,0.396,0.978,1.111
				C82.347,79.966,81.781,80.403,81.148,80.403z"/>
			<path fill="#1D1D1B" d="M84.543,80.403c-1.034-0.016-1.898-0.777-1.878-1.831c0.015-0.89,0.725-1.79,1.96-1.775
				c0.88,0.01,1.878,0.648,1.862,1.816C86.467,79.817,85.474,80.414,84.543,80.403z M84.579,77.065c-0.679,0-1.193,0.54-1.199,1.451
				c-0.005,1.096,0.617,1.595,1.209,1.595c0.674,0,1.168-0.535,1.173-1.466C85.767,77.651,85.263,77.065,84.579,77.065z"/>
			<path fill="#1D1D1B" d="M89.507,80.362c-0.196,0.005-0.365-0.118-0.458-0.242c-0.231-0.324-0.458-0.7-0.643-0.988
				c-0.134-0.206-0.252-0.427-0.473-0.427c-0.062,0-0.226,0.01-0.226,0.01v1.404c0,0.113,0.057,0.185,0.144,0.231h-0.931
				c0.082-0.046,0.134-0.118,0.134-0.231v-3.035c0-0.118-0.051-0.19-0.134-0.231h1.111c1.065,0,1.307,0.52,1.307,0.864
				c0,0.556-0.504,0.833-0.869,0.859c0.35,0.036,0.504,0.273,0.581,0.386c0,0,0.623,0.972,0.797,1.183
				c0.103,0.118,0.329,0.206,0.329,0.206L89.507,80.362z M88.005,77.101c-0.154,0-0.298,0.01-0.298,0.01v1.343
				c0,0,0.144,0.01,0.231,0.01c0.35,0,0.72-0.196,0.72-0.715C88.658,77.512,88.514,77.101,88.005,77.101z"/>
			<path fill="#1D1D1B" d="M92.156,77.147c0,0-0.468-0.036-0.844-0.036v3.009c0,0.113,0.056,0.185,0.134,0.231h-0.921
				c0.082-0.046,0.134-0.118,0.134-0.231v-3.009c-0.381,0-0.823,0.036-0.823,0.036c-0.123,0.005-0.211,0.118-0.257,0.206v-0.499
				h2.819v0.499C92.351,77.265,92.279,77.152,92.156,77.147z"/>
			<path fill="#1D1D1B" d="M93.581,80.403c-0.468,0-0.808-0.16-0.988-0.247l-0.026-0.869c0.098,0.365,0.406,0.849,0.941,0.849
				c0.509,0,0.664-0.366,0.664-0.617c0-0.494-0.448-0.556-0.916-0.813c-0.473-0.257-0.679-0.54-0.679-0.931
				c0-0.7,0.653-0.977,1.122-0.977c0.175,0,0.514,0.036,0.777,0.19l0.026,0.761c-0.072-0.273-0.365-0.684-0.859-0.684
				c-0.391,0-0.545,0.273-0.545,0.494c0,0.314,0.221,0.427,0.705,0.653c0.478,0.221,0.978,0.396,0.978,1.111
				C94.779,79.966,94.213,80.403,93.581,80.403z"/>
		</g>
	</g>
	
		<rect x="70.844" y="77.841" transform="matrix(0.7071 0.7071 -0.7071 0.7071 76.5588 -27.6131)" fill="#1D1D1B" width="1.534" height="1.534"/>
</g>
</svg>
