<?xml version="1.0" encoding="utf-8"?>
<!-- Generator: Adobe Illustrator 24.0.3, SVG Export Plug-In . SVG Version: 6.00 Build 0)  -->
<svg version="1.0" id="Layer_1" xmlns="http://www.w3.org/2000/svg" xmlns:xlink="http://www.w3.org/1999/xlink" x="0px" y="0px"
	 viewBox="0 0 120 120" enable-background="new 0 0 120 120" xml:space="preserve">
<rect x="1" fill="#FFFFFF" width="119" height="119"/>
<g>
	<polygon fill="#231F20" points="188.125,29.257 195.057,42.742 209.921,17.003 209.919,17 174.516,17 156.815,47.659 
		174.514,78.316 189.328,52.663 177.39,29.257 	"/>
	<polygon fill="#231F20" points="195.792,44.172 207.046,66.062 196.162,66.062 190.06,54.098 176.074,78.319 209.919,78.319 
		227.621,47.659 210.701,18.355 	"/>
	<g>
		<path fill="#231F20" d="M156.815,90.59h2.514v13.36h-2.514V90.59z"/>
		<path fill="#231F20" d="M168.956,94.814v9.136h-2.495V90.59h2.181l6.189,9.155V90.59h2.534v13.36h-2.22L168.956,94.814z"/>
		<path fill="#231F20" d="M184.477,90.59h4.99c0.838,0,1.618,0.148,2.338,0.442c0.72,0.294,1.342,0.723,1.866,1.287
			c0.524,0.563,0.933,1.264,1.228,2.103c0.294,0.838,0.442,1.794,0.442,2.869c0,1.074-0.147,2.026-0.442,2.857
			c-0.295,0.832-0.704,1.53-1.228,2.094c-0.524,0.563-1.146,0.988-1.866,1.276c-0.721,0.289-1.5,0.433-2.338,0.433h-4.99V90.59z
			 M189.153,101.749c1.113,0,1.994-0.379,2.642-1.14c0.649-0.758,0.973-1.865,0.973-3.319c0-1.467-0.324-2.584-0.973-3.35
			c-0.648-0.766-1.529-1.15-2.642-1.15h-2.162v8.959H189.153z"/>
		<path fill="#231F20" d="M201.785,103.95V90.59h9.056v2.22h-6.641v3.183h5.423v2.181h-5.423v3.575h6.641v2.201H201.785z"/>
		<polygon fill="#231F20" points="223.665,97.304 227.742,90.604 224.787,90.605 221.899,95.634 219.011,90.605 216.075,90.604 
			220.151,97.304 216.059,103.964 219.031,103.964 221.899,98.954 224.748,103.964 227.756,103.964 		"/>
	</g>
</g>
<g>
	<polygon fill="#231F20" points="42.087,18.396 34.993,30.682 41.788,30.682 55.405,56.439 59.419,49.67 49.633,30.682 
		60.126,30.682 73.788,56.748 86.327,35.077 76.695,18.396 	"/>
	<polygon fill="#231F20" points="87.063,36.351 62.768,78.339 76.696,78.34 94,48.368 	"/>
	<polygon fill="#231F20" points="68.118,66.547 60.1,50.992 50.944,66.362 50.932,66.358 50.335,67.388 33.045,34.056 
		24.781,48.367 42.085,78.336 61.295,78.338 	"/>
</g>
<g>
	<polygon fill="#231F20" points="23.921,92.885 21.602,99.477 19.449,92.885 17.65,92.885 18.643,95.826 17.153,99.78 
		14.786,92.885 13,92.885 16.113,101.851 17.91,101.851 19.366,98.014 20.727,101.851 22.525,101.851 25.73,92.885 	"/>
	<g>
		<path fill="#231F20" d="M29.008,97.381c0,0.404,0.063,0.782,0.19,1.134c0.126,0.352,0.3,0.655,0.521,0.909
			c0.221,0.256,0.485,0.457,0.793,0.607c0.307,0.149,0.642,0.224,1.005,0.224c0.371,0,0.71-0.075,1.017-0.224
			c0.308-0.15,0.572-0.352,0.793-0.607c0.221-0.254,0.393-0.558,0.515-0.909c0.122-0.352,0.183-0.73,0.183-1.134
			c0-0.413-0.06-0.795-0.183-1.147c-0.122-0.352-0.295-0.656-0.515-0.91c-0.221-0.254-0.485-0.455-0.793-0.6
			c-0.307-0.145-0.646-0.218-1.017-0.218c-0.363,0-0.698,0.073-1.005,0.218c-0.308,0.145-0.572,0.345-0.793,0.6
			c-0.221,0.254-0.395,0.559-0.521,0.91C29.071,96.586,29.008,96.968,29.008,97.381 M27.376,97.381c0-0.66,0.105-1.272,0.314-1.839
			c0.209-0.567,0.498-1.057,0.869-1.47c0.372-0.414,0.808-0.736,1.308-0.969c0.5-0.232,1.047-0.349,1.639-0.349
			c0.591,0,1.141,0.117,1.65,0.349c0.509,0.233,0.948,0.555,1.32,0.969c0.371,0.413,0.66,0.903,0.869,1.47
			c0.209,0.567,0.314,1.179,0.314,1.839c0,0.659-0.105,1.267-0.314,1.826c-0.209,0.559-0.498,1.044-0.869,1.457
			c-0.372,0.413-0.811,0.736-1.32,0.968c-0.509,0.233-1.059,0.351-1.65,0.351c-0.591,0-1.138-0.117-1.639-0.351
			c-0.5-0.232-0.937-0.555-1.308-0.968c-0.371-0.413-0.66-0.899-0.869-1.457C27.48,98.648,27.376,98.04,27.376,97.381"/>
		<path fill="#231F20" d="M40.414,94.494v2.677h2.058c0.379,0,0.691-0.116,0.935-0.349c0.244-0.233,0.366-0.561,0.366-0.983
			c0-0.448-0.122-0.783-0.366-1.008c-0.245-0.224-0.556-0.336-0.935-0.336H40.414z M38.757,92.886h3.538
			c0.496,0,0.942,0.057,1.337,0.171c0.394,0.115,0.729,0.29,1.005,0.528c0.276,0.236,0.489,0.54,0.639,0.909
			c0.15,0.368,0.225,0.805,0.225,1.305c0,0.361-0.054,0.693-0.159,0.996c-0.107,0.303-0.254,0.573-0.443,0.811
			c-0.19,0.238-0.415,0.437-0.675,0.6c-0.261,0.163-0.541,0.28-0.839,0.349l2.567,2.992v0.303h-1.857l-2.686-3.23h-0.994v3.23
			h-1.657V92.886z"/>
	</g>
	<polygon fill="#231F20" points="54.316,92.885 51.772,96.616 50.897,96.616 50.897,92.885 49.239,92.885 49.239,101.851 
		50.897,101.851 50.897,98.225 51.759,98.225 54.398,101.851 56.339,101.851 56.339,101.587 53.156,97.381 56.03,93.163 
		56.03,92.885 	"/>
	<g>
		<path fill="#231F20" d="M59.415,99.424c0.291,0.211,0.66,0.409,1.107,0.593c0.446,0.185,0.928,0.277,1.449,0.277
			c0.49,0,0.873-0.083,1.154-0.25c0.28-0.167,0.419-0.417,0.419-0.752c0-0.246-0.082-0.443-0.248-0.593
			c-0.166-0.149-0.457-0.285-0.875-0.409l-1.325-0.37c-0.718-0.202-1.241-0.511-1.568-0.929c-0.327-0.417-0.491-0.929-0.491-1.535
			c0-0.37,0.063-0.719,0.19-1.048c0.126-0.329,0.319-0.615,0.58-0.856c0.26-0.242,0.587-0.433,0.982-0.574
			c0.394-0.14,0.859-0.21,1.396-0.21c0.291,0,0.578,0.019,0.857,0.059c0.28,0.04,0.545,0.092,0.793,0.158
			c0.249,0.065,0.477,0.143,0.686,0.23c0.209,0.089,0.392,0.176,0.55,0.264l-0.473,1.687c-0.3-0.193-0.677-0.36-1.13-0.5
			c-0.454-0.141-0.902-0.211-1.343-0.211c-0.489,0-0.84,0.077-1.054,0.23c-0.212,0.154-0.319,0.358-0.319,0.613
			c0,0.246,0.073,0.427,0.219,0.541c0.147,0.114,0.365,0.22,0.658,0.317l1.478,0.461c0.733,0.228,1.278,0.547,1.632,0.956
			c0.355,0.409,0.533,0.933,0.533,1.575c0,0.422-0.082,0.807-0.248,1.153c-0.166,0.348-0.397,0.646-0.693,0.897
			c-0.296,0.249-0.649,0.443-1.059,0.58c-0.411,0.136-0.856,0.205-1.338,0.205c-0.291,0-0.584-0.025-0.874-0.074
			c-0.292-0.048-0.567-0.111-0.822-0.191c-0.257-0.078-0.491-0.164-0.704-0.257c-0.213-0.092-0.383-0.177-0.509-0.257L59.415,99.424
			z"/>
		<path fill="#231F20" d="M70.453,94.494v3.27h1.928c0.205,0,0.397-0.038,0.574-0.113c0.177-0.074,0.333-0.182,0.468-0.322
			c0.133-0.141,0.238-0.31,0.314-0.508c0.075-0.198,0.112-0.424,0.112-0.679c0-0.536-0.143-0.945-0.426-1.227
			c-0.285-0.281-0.631-0.421-1.042-0.421H70.453z M68.797,92.886h3.845c0.395,0,0.769,0.065,1.123,0.197
			c0.355,0.132,0.665,0.332,0.929,0.6c0.264,0.268,0.475,0.607,0.634,1.016c0.157,0.409,0.237,0.894,0.237,1.456
			c0,0.502-0.079,0.951-0.237,1.351c-0.158,0.4-0.37,0.738-0.634,1.015c-0.264,0.278-0.574,0.489-0.929,0.634
			c-0.355,0.145-0.729,0.217-1.123,0.217h-2.189v2.478h-1.657V92.886z"/>
	</g>
	<path fill="#231F20" d="M82.143,94.718l1.372,3.968H80.7L82.143,94.718z M81.172,92.885l-3.206,8.965h1.681l0.627-1.794h3.655
		l0.615,1.794h1.68l-3.111-8.965H81.172z"/>
	<g>
		<path fill="#231F20" d="M90.33,97.368c0,0.404,0.061,0.782,0.184,1.134c0.122,0.352,0.294,0.659,0.514,0.923
			c0.221,0.264,0.486,0.47,0.793,0.619c0.308,0.15,0.647,0.225,1.018,0.225c0.521,0,0.973-0.088,1.36-0.264
			c0.388-0.175,0.718-0.382,0.995-0.62l0.78,1.305c-0.426,0.432-0.903,0.754-1.432,0.969c-0.528,0.215-1.1,0.323-1.715,0.323
			c-0.6,0-1.156-0.116-1.669-0.349c-0.512-0.232-0.958-0.555-1.337-0.968c-0.378-0.414-0.674-0.902-0.887-1.464
			c-0.213-0.562-0.32-1.173-0.32-1.832c0-0.66,0.107-1.27,0.32-1.832c0.213-0.563,0.509-1.051,0.887-1.464
			c0.379-0.413,0.825-0.735,1.337-0.969c0.513-0.232,1.07-0.348,1.669-0.348c0.615,0,1.187,0.108,1.715,0.323
			c0.529,0.215,1.006,0.537,1.432,0.969l-0.78,1.305c-0.277-0.238-0.607-0.444-0.995-0.62c-0.386-0.176-0.839-0.264-1.36-0.264
			c-0.371,0-0.71,0.075-1.018,0.224c-0.307,0.15-0.572,0.356-0.793,0.62c-0.221,0.264-0.392,0.571-0.514,0.923
			C90.391,96.586,90.33,96.964,90.33,97.368"/>
	</g>
	<polygon fill="#231F20" points="99.416,92.885 99.416,101.851 105.781,101.851 105.781,100.229 101.002,100.229 101.002,98.067 
		104.918,98.067 104.918,96.445 101.002,96.445 101.002,94.507 105.781,94.507 105.781,92.885 	"/>
</g>
</svg>
